<mxfile host="Electron" agent="Mozilla/5.0 (Windows NT 10.0; Win64; x64) AppleWebKit/537.36 (KHTML, like Gecko) draw.io/28.0.6 Chrome/138.0.7204.100 Electron/37.2.3 Safari/537.36" version="28.0.6">
  <diagram name="Diagrama de Objeto" id="objectDiagram1">
    <mxGraphModel dx="1389" dy="764" grid="1" gridSize="10" guides="1" tooltips="1" connect="1" arrows="1" fold="1" page="1" pageScale="1" pageWidth="827" pageHeight="1169" math="0" shadow="0">
      <root>
        <mxCell id="0" />
        <mxCell id="1" parent="0" />
        <mxCell id="p1" value="e1: Estudiante&amp;nbsp;&lt;br&gt;dni = 45340470&lt;br&gt;nombre = &quot;Juan&quot;&lt;br&gt;apellido = &quot;Esdeladeña&quot;&lt;br&gt;celular = &quot;3585740340&quot;&lt;br&gt;email = &quot;juan.esdeladenia@gmail&quot;&lt;div&gt;ingresante&lt;/div&gt;" style="shape=rectangle;whiteSpace=wrap;html=1;" parent="1" vertex="1">
          <mxGeometry x="660" y="50" width="250" height="120" as="geometry" />
        </mxCell>
        <mxCell id="u1" value="u1: Usuario&#xa;user = &quot;45340470&quot;&#xa;pass = &quot;Juan45340470&quot;" style="shape=rectangle;whiteSpace=wrap;html=1;" parent="1" vertex="1">
          <mxGeometry x="100" y="50" width="200" height="80" as="geometry" />
        </mxCell>
        <mxCell id="f1" value="f1: Facultad&#xa;nombre = &quot;Facultad de Ciencias Exactas&quot;" style="shape=rectangle;whiteSpace=wrap;html=1;" parent="1" vertex="1">
          <mxGeometry x="110" y="310" width="250" height="60" as="geometry" />
        </mxCell>
        <mxCell id="c1" value="c1: Carrera&#xa;nombre = &quot;Analista en Computacion&quot;" style="shape=rectangle;whiteSpace=wrap;html=1;" parent="1" vertex="1">
          <mxGeometry x="480" y="310" width="250" height="60" as="geometry" />
        </mxCell>
        <mxCell id="edge_c1_f1" style="edgeStyle=orthogonalEdgeStyle;endArrow=none;html=1;" parent="1" source="c1" target="f1" edge="1">
          <mxGeometry relative="1" as="geometry" />
        </mxCell>
        <mxCell id="pl1" value="pl1: Plan de Estudio&#xa;año = 2024" style="shape=rectangle;whiteSpace=wrap;html=1;" parent="1" vertex="1">
          <mxGeometry x="920" y="310" width="200" height="60" as="geometry" />
        </mxCell>
        <mxCell id="m1" value="m1: Materia&#xa;nombre = &quot;Introduccion a la Computacion y Programacion&quot;&#xa;codigo = 3410" style="shape=rectangle;whiteSpace=wrap;html=1;" parent="1" vertex="1">
          <mxGeometry x="100" y="600" width="300" height="80" as="geometry" />
        </mxCell>
        <mxCell id="m2" value="m2: Materia&#xa;nombre = &quot;Logica y Resolucion de Problemas&quot;&#xa;codigo = 3377" style="shape=rectangle;whiteSpace=wrap;html=1;" parent="1" vertex="1">
          <mxGeometry x="500" y="600" width="300" height="80" as="geometry" />
        </mxCell>
        <mxCell id="m3" value="m3: Materia&#xa;nombre = &quot;Introduccion a la Matematica&quot;&#xa;codigo = 3376" style="shape=rectangle;whiteSpace=wrap;html=1;" parent="1" vertex="1">
          <mxGeometry x="890" y="600" width="300" height="80" as="geometry" />
        </mxCell>
        <mxCell id="XUEC67fFINAnCRldMkw4-1" value="" style="endArrow=none;html=1;rounded=0;entryX=-0.004;entryY=0.425;entryDx=0;entryDy=0;entryPerimeter=0;" parent="1" target="p1" edge="1">
          <mxGeometry width="50" height="50" relative="1" as="geometry">
            <mxPoint x="300" y="100" as="sourcePoint" />
            <mxPoint x="350" y="50" as="targetPoint" />
          </mxGeometry>
        </mxCell>
        <mxCell id="XUEC67fFINAnCRldMkw4-3" value="" style="endArrow=none;html=1;rounded=0;entryX=1;entryY=0.5;entryDx=0;entryDy=0;" parent="1" target="p1" edge="1">
          <mxGeometry width="50" height="50" relative="1" as="geometry">
            <mxPoint x="1330" y="310" as="sourcePoint" />
            <mxPoint x="1330" y="140.0000000000001" as="targetPoint" />
            <Array as="points">
              <mxPoint x="1330" y="110" />
            </Array>
          </mxGeometry>
        </mxCell>
        <mxCell id="XUEC67fFINAnCRldMkw4-4" value="" style="endArrow=none;html=1;rounded=0;entryX=-0.017;entryY=0.641;entryDx=0;entryDy=0;entryPerimeter=0;exitX=1.016;exitY=0.633;exitDx=0;exitDy=0;exitPerimeter=0;" parent="1" source="c1" target="pl1" edge="1">
          <mxGeometry width="50" height="50" relative="1" as="geometry">
            <mxPoint x="730" y="350" as="sourcePoint" />
            <mxPoint x="780" y="300" as="targetPoint" />
          </mxGeometry>
        </mxCell>
        <mxCell id="XUEC67fFINAnCRldMkw4-9" value="" style="endArrow=none;html=1;rounded=0;exitX=0.429;exitY=0.013;exitDx=0;exitDy=0;exitPerimeter=0;" parent="1" source="m3" edge="1">
          <mxGeometry width="50" height="50" relative="1" as="geometry">
            <mxPoint x="1020" y="590" as="sourcePoint" />
            <mxPoint x="1020" y="370" as="targetPoint" />
          </mxGeometry>
        </mxCell>
        <mxCell id="XUEC67fFINAnCRldMkw4-11" value="" style="endArrow=none;html=1;rounded=0;exitX=0.604;exitY=-0.021;exitDx=0;exitDy=0;exitPerimeter=0;" parent="1" source="m1" edge="1">
          <mxGeometry width="50" height="50" relative="1" as="geometry">
            <mxPoint x="560" y="490" as="sourcePoint" />
            <mxPoint x="1020" y="370" as="targetPoint" />
            <Array as="points" />
          </mxGeometry>
        </mxCell>
        <mxCell id="XUEC67fFINAnCRldMkw4-12" value="" style="endArrow=none;html=1;rounded=0;exitX=0.5;exitY=1;exitDx=0;exitDy=0;" parent="1" edge="1">
          <mxGeometry width="50" height="50" relative="1" as="geometry">
            <mxPoint x="1030" y="680" as="sourcePoint" />
            <mxPoint x="1330" y="310" as="targetPoint" />
            <Array as="points">
              <mxPoint x="1030" y="760" />
              <mxPoint x="1330" y="760" />
            </Array>
          </mxGeometry>
        </mxCell>
        <mxCell id="XUEC67fFINAnCRldMkw4-13" value="" style="endArrow=none;html=1;rounded=0;exitX=0.5;exitY=1;exitDx=0;exitDy=0;" parent="1" source="m2" edge="1">
          <mxGeometry width="50" height="50" relative="1" as="geometry">
            <mxPoint x="990" y="810" as="sourcePoint" />
            <mxPoint x="1040" y="760" as="targetPoint" />
            <Array as="points">
              <mxPoint x="650" y="760" />
            </Array>
          </mxGeometry>
        </mxCell>
        <mxCell id="XUEC67fFINAnCRldMkw4-14" value="" style="endArrow=none;html=1;rounded=0;exitX=0.5;exitY=1;exitDx=0;exitDy=0;" parent="1" source="m1" edge="1">
          <mxGeometry width="50" height="50" relative="1" as="geometry">
            <mxPoint x="600" y="810" as="sourcePoint" />
            <mxPoint x="650" y="760" as="targetPoint" />
            <Array as="points">
              <mxPoint x="250" y="760" />
            </Array>
          </mxGeometry>
        </mxCell>
        <mxCell id="rfRbu2xtSHkhrHxc25T4-1" value="" style="endArrow=none;html=1;rounded=0;exitX=0.5;exitY=0;exitDx=0;exitDy=0;" edge="1" parent="1" source="pl1">
          <mxGeometry width="50" height="50" relative="1" as="geometry">
            <mxPoint x="740" y="220" as="sourcePoint" />
            <mxPoint x="790" y="170" as="targetPoint" />
          </mxGeometry>
        </mxCell>
        <mxCell id="rfRbu2xtSHkhrHxc25T4-2" value="tiene" style="text;html=1;align=center;verticalAlign=middle;resizable=0;points=[];autosize=1;strokeColor=none;fillColor=none;rotation=30;" vertex="1" parent="1">
          <mxGeometry x="890" y="210" width="50" height="30" as="geometry" />
        </mxCell>
        <mxCell id="rfRbu2xtSHkhrHxc25T4-3" value="tiene" style="text;html=1;align=center;verticalAlign=middle;resizable=0;points=[];autosize=1;strokeColor=none;fillColor=none;" vertex="1" parent="1">
          <mxGeometry x="430" y="75" width="50" height="30" as="geometry" />
        </mxCell>
        <mxCell id="rfRbu2xtSHkhrHxc25T4-4" value="" style="endArrow=none;html=1;rounded=0;exitX=0.5;exitY=0;exitDx=0;exitDy=0;" edge="1" parent="1" source="m2">
          <mxGeometry width="50" height="50" relative="1" as="geometry">
            <mxPoint x="970" y="420" as="sourcePoint" />
            <mxPoint x="1020" y="370" as="targetPoint" />
          </mxGeometry>
        </mxCell>
        <mxCell id="rfRbu2xtSHkhrHxc25T4-5" value="pertenece" style="text;html=1;align=center;verticalAlign=middle;resizable=0;points=[];autosize=1;strokeColor=none;fillColor=none;" vertex="1" parent="1">
          <mxGeometry x="373" y="310" width="80" height="30" as="geometry" />
        </mxCell>
        <mxCell id="rfRbu2xtSHkhrHxc25T4-6" value="tiene" style="text;html=1;align=center;verticalAlign=middle;resizable=0;points=[];autosize=1;strokeColor=none;fillColor=none;" vertex="1" parent="1">
          <mxGeometry x="800" y="325" width="50" height="30" as="geometry" />
        </mxCell>
        <mxCell id="rfRbu2xtSHkhrHxc25T4-7" value="contiene" style="text;html=1;align=center;verticalAlign=middle;resizable=0;points=[];autosize=1;strokeColor=none;fillColor=none;rotation=-20;" vertex="1" parent="1">
          <mxGeometry x="570" y="468" width="70" height="30" as="geometry" />
        </mxCell>
        <mxCell id="rfRbu2xtSHkhrHxc25T4-12" value="contiene" style="text;html=1;align=center;verticalAlign=middle;resizable=0;points=[];autosize=1;strokeColor=none;fillColor=none;rotation=-30;" vertex="1" parent="1">
          <mxGeometry x="720" y="510" width="70" height="30" as="geometry" />
        </mxCell>
        <mxCell id="rfRbu2xtSHkhrHxc25T4-13" value="contiene" style="text;html=1;align=center;verticalAlign=middle;resizable=0;points=[];autosize=1;strokeColor=none;fillColor=none;" vertex="1" parent="1">
          <mxGeometry x="1010" y="490" width="70" height="30" as="geometry" />
        </mxCell>
        <mxCell id="rfRbu2xtSHkhrHxc25T4-14" value="cursa" style="text;html=1;align=center;verticalAlign=middle;resizable=0;points=[];autosize=1;strokeColor=none;fillColor=none;" vertex="1" parent="1">
          <mxGeometry x="1330" y="430" width="50" height="30" as="geometry" />
        </mxCell>
      </root>
    </mxGraphModel>
  </diagram>
</mxfile>
